<svg width="315" height="425" viewBox="0 0 315 425" fill="none" xmlns="http://www.w3.org/2000/svg">
<path d="M314.539 150.78C310.328 162.881 300.357 172.013 288.028 175.057L243.617 186.027L182.053 362.916C171.948 391.939 149.324 414.738 120.57 424.857L135.493 381.99L144.905 354.949L193.998 213.9L199.94 196.821L151.75 208.731L108.073 219.518L29.9089 238.83L43.7806 251.012L84.6278 286.886L102.131 236.596L145.801 225.803L115.201 313.743C108.753 332.273 85.8539 338.394 71.1872 325.511L9.48869 271.326C-7.36759 256.521 -0.684362 228.663 21.0024 223.304L114.824 200.124L170.998 38.7063C172.136 35.4445 174.818 32.9862 178.132 32.169L216.493 22.6967L158.5 189.33L206.691 177.427L262.865 16.0096C264.004 12.7478 266.685 10.2895 270 9.47229L308.361 0L250.368 166.633L314.539 150.78Z" fill="url(#paint0_linear_544_4207)"/>
<defs>
<linearGradient id="paint0_linear_544_4207" x1="157.269" y1="0" x2="157.269" y2="424.857" gradientUnits="userSpaceOnUse">
<stop offset="0.504808" stop-color="#D4E4FF"/>
<stop offset="1" stop-color="#8BAEFF"/>
</linearGradient>
</defs>
</svg>
