<svg width="28" height="28" viewBox="0 0 28 28" fill="none" xmlns="http://www.w3.org/2000/svg">
<path d="M20.2275 4.375C22.1871 4.375 23.7752 5.96339 23.7754 7.92285V20.4268C23.7754 22.3864 22.1872 23.9746 20.2275 23.9746H7.04785C5.0884 23.9744 3.50002 22.3863 3.5 20.4268V7.92285C3.50023 5.96353 5.08853 4.37523 7.04785 4.375H20.2275ZM10.9463 9.33887C10.9351 9.33743 10.9238 9.33921 10.9131 9.34277C10.9023 9.34644 10.8919 9.35231 10.8838 9.36035C10.8756 9.36852 10.8689 9.3787 10.8652 9.38965C10.8615 9.40058 10.8608 9.41239 10.8623 9.42383C10.8646 9.68327 10.8264 9.94179 10.749 10.1895L8.00977 18.3242C7.98124 18.4168 8.01424 18.4637 8.1084 18.4639H9.52832C9.61328 18.4638 9.65994 18.4259 9.66895 18.3516L10.4502 16.0977H13.4736L14.2969 18.3789C14.3094 18.4055 14.3292 18.4283 14.3545 18.4434C14.3797 18.4583 14.4092 18.4656 14.4385 18.4639H16.0273C16.1034 18.4639 16.1274 18.4224 16.0986 18.3379L13.0332 9.4082C13.0238 9.36281 12.9909 9.33887 12.9336 9.33887H10.9463ZM17.0684 11.7051C17.053 11.7028 17.0372 11.7041 17.0225 11.709C17.0078 11.7138 16.9943 11.7216 16.9834 11.7324C16.9724 11.7434 16.9639 11.7577 16.959 11.7725C16.9542 11.7871 16.9528 11.8031 16.9551 11.8184V18.3369C16.9527 18.354 16.9545 18.3713 16.96 18.3877C16.9655 18.4042 16.975 18.4194 16.9873 18.4316C16.9995 18.4438 17.014 18.4535 17.0303 18.459C17.0467 18.4645 17.0648 18.4663 17.082 18.4639H18.5312C18.5466 18.4661 18.5624 18.4638 18.5771 18.459C18.5918 18.4542 18.6053 18.4464 18.6162 18.4355C18.6271 18.4246 18.6357 18.4111 18.6406 18.3965C18.6455 18.3818 18.6467 18.3659 18.6445 18.3506V11.8184C18.6466 11.8031 18.6455 11.7871 18.6406 11.7725C18.6357 11.7578 18.6271 11.7443 18.6162 11.7334C18.6052 11.7224 18.5918 11.7139 18.5771 11.709C18.5625 11.7041 18.5466 11.703 18.5312 11.7051H17.0684ZM11.9512 10.7471C12.0279 11.0373 13.087 14.453 13.1436 14.5771H10.7881L11.9375 10.7471H11.9512ZM17.8076 9.00098C17.6728 8.99618 17.5382 9.0186 17.4121 9.06641C17.2859 9.11428 17.17 9.18721 17.0723 9.28027C16.9759 9.37736 16.9008 9.49347 16.8516 9.62109C16.8023 9.74885 16.7799 9.88568 16.7861 10.0225C16.7791 10.1576 16.8006 10.2934 16.8486 10.4199C16.8966 10.5462 16.9698 10.6615 17.0645 10.7578C17.1614 10.8493 17.2764 10.9202 17.4014 10.9668C17.5262 11.0133 17.6589 11.0349 17.792 11.0293C17.9276 11.0358 18.0639 11.0143 18.1914 10.9678C18.3187 10.9212 18.4358 10.85 18.5352 10.7578C18.63 10.6614 18.704 10.5463 18.752 10.4199C18.7879 10.3251 18.8082 10.2249 18.8135 10.124V9.9209C18.8082 9.81968 18.7878 9.71958 18.7529 9.62402C18.7064 9.49666 18.6352 9.37969 18.543 9.28027C18.4465 9.18537 18.3306 9.11147 18.2041 9.06348C18.0777 9.01554 17.9427 8.99396 17.8076 9.00098Z" fill="#1A1A1A"/>
</svg>
