<svg width="28" height="28" viewBox="0 0 28 28" fill="none" xmlns="http://www.w3.org/2000/svg">
<path d="M21.0002 4.2002C22.5446 4.2002 23.8002 5.45582 23.8002 7.0002V21.0002C23.8002 22.5446 22.5446 23.8002 21.0002 23.8002H7.0002C5.45582 23.8002 4.2002 22.5446 4.2002 21.0002V7.0002C4.2002 5.45582 5.45582 4.2002 7.0002 4.2002H21.0002ZM11.7996 7.0002C10.3558 7.0002 9.18332 8.1727 9.18332 9.61645C9.18332 10.5352 9.65582 11.3402 10.3733 11.8083C9.65582 12.2764 9.18332 13.0814 9.18332 14.0002C9.18332 14.9189 9.65582 15.7283 10.3733 16.1921C9.65582 16.6602 9.18332 17.4652 9.18332 18.3839C9.18332 19.8321 10.3689 21.0002 11.8127 21.0002C13.2652 21.0002 14.4639 19.8233 14.4639 18.3621V15.9252C14.9277 16.3539 15.5489 16.6164 16.2314 16.6164H16.2796C17.7233 16.6164 18.8958 15.4439 18.8958 14.0002C18.8958 13.0814 18.4233 12.2721 17.7058 11.8083C18.4233 11.3402 18.8958 10.5352 18.8958 9.61645C18.8958 8.1727 17.7233 7.0002 16.2796 7.0002H11.7996ZM13.6196 16.6164V18.3621C13.6196 19.3508 12.8058 20.1558 11.8127 20.1558C10.8327 20.1558 10.0321 19.3596 10.0321 18.3839C10.0321 17.4083 10.8239 16.6164 11.7952 16.6164H13.6196ZM13.6196 12.2283V15.7677H11.7952C10.8196 15.7633 10.0321 14.9714 10.0321 13.9958C10.0321 13.0202 10.8239 12.2239 11.8039 12.2239H13.6239L13.6196 12.2283ZM16.2796 12.2283C17.2552 12.2283 18.0514 13.0202 18.0514 14.0002C18.0514 14.9802 17.2596 15.7721 16.2796 15.7721H16.2314C15.2558 15.7721 14.4639 14.9802 14.4639 14.0002C14.4639 13.0202 15.2558 12.2283 16.2314 12.2283H16.2796ZM13.6196 11.3839H11.7996C10.8239 11.3839 10.0277 10.5921 10.0277 9.61645C10.0277 8.64082 10.8196 7.84457 11.7996 7.84457H13.6196V11.3839ZM16.2796 7.84457C17.2552 7.84457 18.0514 8.63645 18.0514 9.61645C18.0514 10.5964 17.2596 11.3839 16.2796 11.3839H14.4639V7.84457H16.2796Z" fill="#1A1A1A"/>
</svg>
