<svg width="48" height="48" viewBox="0 0 48 48" fill="none" xmlns="http://www.w3.org/2000/svg">
<path d="M40.8 12C40.8 9.35251 38.6475 7.20001 36 7.20001H12C9.35251 7.20001 7.20001 9.35251 7.20001 12V36C7.20001 38.6475 9.35251 40.8 12 40.8H36C38.6475 40.8 40.8 38.6475 40.8 36V12ZM27.135 35.3775C27.135 35.2425 27.135 34.9275 27.1425 34.5075C27.15 33.6525 27.15 32.3475 27.15 31.23C27.15 30.06 26.76 29.3175 26.3025 28.9275C29.0775 28.62 32.0025 28.2375 32.0025 23.445C32.0025 22.08 31.515 21.3975 30.72 20.52C30.8475 20.1975 31.275 18.87 30.5925 17.145C29.55 16.8225 27.165 18.4875 27.165 18.4875C25.17 17.925 22.92 17.925 20.925 18.4875C20.925 18.4875 18.54 16.8225 17.4975 17.145C16.815 18.8625 17.235 20.19 17.37 20.52C16.575 21.3975 16.2 22.08 16.2 23.445C16.2 28.215 18.9975 28.62 21.7725 28.9275C21.4125 29.25 21.09 29.805 20.9775 30.6C20.265 30.9225 18.4425 31.4775 17.355 29.5575C16.6725 28.3725 15.4425 28.275 15.4425 28.275C14.2275 28.26 15.36 29.04 15.36 29.04C16.17 29.415 16.74 30.855 16.74 30.855C17.4675 33.0825 20.9475 32.3325 20.9475 32.3325C20.9475 33.0075 20.955 33.96 20.955 34.6275C20.955 34.9875 20.9625 35.2725 20.9625 35.3775C20.9625 35.7 20.7375 36.09 20.1 35.9775C15.15 34.32 11.685 29.61 11.685 24.105C11.685 17.22 16.95 11.9925 23.835 11.9925C30.72 11.9925 36.3 17.22 36.3 24.105C36.3075 29.61 32.9475 34.3275 27.9975 35.9775C27.3675 36.09 27.135 35.7 27.135 35.3775ZM20.3475 31.2675C20.3325 31.155 20.43 31.0575 20.5725 31.0275C20.715 31.0125 20.85 31.0725 20.865 31.17C20.8875 31.2675 20.79 31.365 20.64 31.395C20.4975 31.425 20.3625 31.365 20.3475 31.2675ZM19.665 31.5075C19.5 31.5225 19.3875 31.44 19.3875 31.3275C19.3875 31.23 19.5 31.1475 19.65 31.1475C19.7925 31.1325 19.9275 31.215 19.9275 31.3275C19.9275 31.425 19.815 31.5075 19.665 31.5075ZM18.5925 31.3425C18.45 31.3125 18.3525 31.2 18.3825 31.1025C18.4125 31.005 18.5625 30.96 18.69 30.99C18.84 31.035 18.9375 31.1475 18.9 31.245C18.87 31.3425 18.72 31.3875 18.5925 31.3425ZM17.655 30.795C17.5425 30.6975 17.5125 30.555 17.5875 30.4875C17.655 30.405 17.7975 30.42 17.91 30.5325C18.0075 30.63 18.045 30.78 17.9775 30.84C17.91 30.9225 17.7675 30.9075 17.655 30.795ZM17.0175 30.045C16.935 29.9325 16.935 29.805 17.0175 29.7525C17.1 29.685 17.2275 29.7375 17.295 29.85C17.3775 29.9625 17.3775 30.0975 17.295 30.1575C17.2275 30.2025 17.1 30.1575 17.0175 30.045ZM16.545 29.385C16.4625 29.2875 16.4475 29.175 16.515 29.1225C16.5825 29.055 16.695 29.0925 16.7775 29.1675C16.86 29.265 16.875 29.3775 16.8075 29.43C16.74 29.4975 16.6275 29.46 16.545 29.385ZM16.095 28.905C15.9975 28.86 15.9525 28.7775 15.9825 28.71C16.0125 28.665 16.095 28.6425 16.1925 28.68C16.29 28.7325 16.335 28.815 16.305 28.875C16.275 28.9425 16.1775 28.9575 16.095 28.905Z" fill="#1A1A1A"/>
</svg>
