<svg width="107" height="28" viewBox="0 0 107 28" fill="none" xmlns="http://www.w3.org/2000/svg">
<g clip-path="url(#clip0_556_4213)">
<path d="M30.6923 17.5809L31.8316 16.4895C32.1517 17.1367 32.8686 17.6063 33.5727 17.6063C34.4944 17.6063 35.1345 16.8829 35.1345 15.855V9.76363H36.8115V15.9565C36.8115 17.8093 35.5314 19.1164 33.7263 19.1164C32.5613 19.1164 31.3067 18.4819 30.7051 17.5936L30.6923 17.5809Z" fill="#282828"/>
<path d="M38.335 15.4743C38.335 13.5073 40.0504 11.8575 42.0731 11.8575C44.0958 11.8575 45.8112 13.5073 45.8112 15.4743C45.8112 17.4413 44.0958 19.1037 42.0731 19.1037C40.0504 19.1037 38.335 17.4413 38.335 15.4743ZM44.1854 15.4743C44.1854 14.2687 43.2125 13.2535 42.0603 13.2535C40.9081 13.2535 39.9224 14.2687 39.9224 15.4743C39.9224 16.6799 40.8953 17.7078 42.0603 17.7078C43.2253 17.7078 44.1854 16.6926 44.1854 15.4743Z" fill="#282828"/>
<path d="M46.7714 18.0631L47.5139 16.921C48.1924 17.4032 48.9733 17.7205 49.8438 17.7205C50.5095 17.7205 50.9704 17.4413 50.9704 17.0098C50.9704 16.4768 50.3687 16.2992 49.5622 16.0834C48.0515 15.69 47.0914 15.2712 47.0786 14.0403C47.0786 12.7459 48.154 11.8575 49.7158 11.8575C50.6759 11.8575 51.6361 12.1875 52.3914 12.6824L51.7001 13.8753C51.0344 13.4565 50.3175 13.2408 49.7158 13.2408C49.1141 13.2408 48.6916 13.4692 48.6916 13.8626C48.6916 14.3068 49.0501 14.4337 50.1254 14.7509C51.3032 15.0682 52.5706 15.4743 52.5706 16.921C52.5706 18.2408 51.4696 19.1037 49.831 19.1037C48.7684 19.1037 47.6163 18.723 46.7842 18.0631H46.7714Z" fill="#282828"/>
<path d="M53.8763 10.0428C53.8763 9.54789 54.2988 9.11642 54.8237 9.11642C55.3486 9.11642 55.7582 9.54789 55.7582 10.0428C55.7582 10.5377 55.3358 10.9819 54.8237 10.9819C54.3116 10.9819 53.8763 10.5377 53.8763 10.0428ZM53.9916 12.0225H55.643V18.9388H53.9916V12.0225Z" fill="#282828"/>
<path d="M63.4906 14.7763V18.9388H61.8903V18.1139C61.3783 18.7611 60.4949 19.1037 59.6884 19.1037C58.2034 19.1037 57.0768 18.2281 57.0768 16.8956C57.0768 15.5631 58.357 14.5987 59.9189 14.5987C60.5589 14.5987 61.2374 14.7382 61.8775 14.9794V14.789C61.8775 13.9895 61.4295 13.2154 60.1621 13.2154C59.4964 13.2154 58.8691 13.4438 58.2674 13.7357L57.7041 12.5936C58.6899 12.1113 59.6116 11.8702 60.4821 11.8702C62.3256 11.8702 63.4778 13.0377 63.4778 14.789L63.4906 14.7763ZM61.8775 16.7814V16.0073C61.3655 15.8296 60.7894 15.7408 60.1621 15.7408C59.3428 15.7408 58.6771 16.1976 58.6771 16.8575C58.6771 17.5174 59.2532 17.9235 60.0341 17.9235C60.815 17.9235 61.6855 17.5174 61.8647 16.7814H61.8775Z" fill="#282828"/>
<path d="M71.671 14.5352V18.9388H70.0836V14.8525C70.0836 13.9134 69.4819 13.2408 68.6113 13.2408C67.6768 13.2408 66.9087 13.9134 66.9087 14.7382V18.9261H65.2573V9.57327H66.9087V12.9616C67.3312 12.289 68.1505 11.8448 69.085 11.8448C70.6084 11.8448 71.671 12.9616 71.671 14.5225V14.5352Z" fill="#282828"/>
<path d="M84.6265 9.75093V18.9387H83.9479V14.5733H78.0975V18.9387H77.419V9.75093H78.0975V13.9387H83.9479V9.75093H84.6265Z" fill="#282828"/>
<path d="M92.2179 14.7256V18.9388H91.5522V17.822C91.0273 18.6469 89.8751 19.091 88.8894 19.091C87.43 19.091 86.3674 18.2027 86.3674 16.8702C86.3674 15.5377 87.5324 14.586 89.1454 14.586C89.9135 14.586 90.7841 14.7763 91.5522 15.0428V14.7256C91.5522 13.6469 91.0273 12.4667 89.4143 12.4667C88.7102 12.4667 87.9549 12.7205 87.302 13.0885L87.0331 12.5428C87.8781 12.086 88.7614 11.8702 89.4783 11.8702C91.2193 11.8702 92.2051 13.0631 92.2051 14.7382L92.2179 14.7256ZM91.5522 16.7814V15.6139C90.8609 15.3855 90.0416 15.1951 89.2478 15.1951C87.9549 15.1951 87.0203 15.8931 87.0203 16.8702C87.0203 17.8474 87.8781 18.4946 88.9918 18.4946C90.0032 18.4946 91.2833 17.9362 91.5522 16.7814Z" fill="#282828"/>
<path d="M99.8478 14.4464V18.9387H99.1821V14.5352C99.1821 13.3296 98.35 12.4794 97.1466 12.4794C95.9432 12.4794 94.9447 13.3677 94.9447 14.5225V18.9387H94.279V12.0225H94.9447V13.2154C95.3031 12.4032 96.1865 11.8575 97.2362 11.8575C98.7596 11.8575 99.8478 12.9235 99.8478 14.4464Z" fill="#282828"/>
<path d="M101.486 18.0758L101.87 17.5809C102.664 18.152 103.573 18.4946 104.38 18.4946C105.391 18.4946 106.172 17.9616 106.172 17.2763C106.172 16.5022 105.519 16.0961 104.239 15.7281C102.562 15.2205 101.922 14.6748 101.922 13.7357C101.922 12.6697 102.971 11.8702 104.264 11.8702C105.097 11.8702 106.005 12.1621 106.761 12.6443L106.402 13.152C105.724 12.7205 104.956 12.4794 104.264 12.4794C103.343 12.4794 102.575 12.9743 102.575 13.6469C102.575 14.3195 103.138 14.6875 104.559 15.1316C106.018 15.5885 106.825 16.1088 106.825 17.1875C106.825 18.2662 105.724 19.1037 104.367 19.1037C103.381 19.1037 102.306 18.723 101.474 18.0758H101.486Z" fill="#282828"/>
<path d="M20.6923 9.93582C20.4077 10.7299 19.7437 11.3358 18.9111 11.5343L15.9284 12.2552L11.7863 23.9149C11.1118 25.8269 9.58357 27.3313 7.65484 28L8.65609 25.1791L9.28846 23.3925L12.5873 14.094L12.9878 12.9657L9.75221 13.7493L6.81167 14.4597L1.56298 15.7343L2.49046 16.5388L5.23074 18.9L6.41117 15.5881L9.34116 14.8776L7.28595 20.6761C6.85383 21.8985 5.31506 22.306 4.32434 21.4493L0.182297 17.8761C-0.945434 16.9045 -0.502773 15.0657 0.951684 14.7104L7.25433 13.1851L11.0275 2.54925C11.1013 2.32985 11.2804 2.17313 11.5018 2.1209L14.084 1.49403L10.1843 12.4746L13.42 11.691L17.1931 1.05522C17.2669 0.835821 17.4461 0.679105 17.6674 0.626866L20.2496 0L16.35 10.9806L20.6606 9.93582H20.6923Z" fill="#282828"/>
</g>
<defs>
<clipPath id="clip0_556_4213">
<rect width="107" height="28" fill="white"/>
</clipPath>
</defs>
</svg>
