<svg width="23" height="30" viewBox="0 0 23 30" fill="none" xmlns="http://www.w3.org/2000/svg">
<g clip-path="url(#clip0_444_505)">
<path d="M23 10.8925C22.7195 11.6987 22.0551 12.3072 21.2337 12.51L18.2746 13.2409L14.1727 25.0268C13.4994 26.9606 11.992 28.4796 10.0762 29.1539L11.0705 26.2977L11.6975 24.4959L14.9686 15.098L15.3645 13.9601L12.1536 14.7536L9.24349 15.4723L4.03552 16.7591L4.95977 17.5708L7.68136 19.961L8.84757 16.6103L11.7572 15.8911L9.71841 21.7505C9.28882 22.9851 7.76306 23.3929 6.78584 22.5345L2.67494 18.9242C1.55183 17.9379 1.99713 16.0817 3.44209 15.7246L9.69327 14.1801L13.4361 3.42511C13.5119 3.20778 13.6906 3.04399 13.9114 2.98954L16.4674 2.35842L12.6034 13.461L15.8143 12.6679L19.5571 1.91286C19.6329 1.69553 19.8116 1.53173 20.0325 1.47729L22.5884 0.846161L18.7244 11.9487L23 10.8925Z" fill="#1A1A1A"/>
</g>
<defs>
<clipPath id="clip0_444_505">
<rect width="23" height="30" fill="white"/>
</clipPath>
</defs>
</svg>
