<svg width="48" height="48" viewBox="0 0 48 48" fill="none" xmlns="http://www.w3.org/2000/svg">
<path d="M12 7.20001C9.35251 7.20001 7.20001 9.35251 7.20001 12V36C7.20001 38.6475 9.35251 40.8 12 40.8H36C38.6475 40.8 40.8 38.6475 40.8 36V12C40.8 9.35251 38.6475 7.20001 36 7.20001H12ZM12.375 19.965H17.3625V36H12.375V19.965ZM17.7525 14.8875C17.7525 16.485 16.4625 17.775 14.865 17.775C13.2675 17.775 11.9775 16.485 11.9775 14.8875C11.9775 13.29 13.2675 12 14.865 12C16.4625 12 17.7525 13.29 17.7525 14.8875ZM31.0425 36V28.2C31.0425 26.34 31.005 23.9475 28.455 23.9475C25.86 23.9475 25.4625 25.9725 25.4625 28.065V36H20.4825V19.965H25.26V22.155H25.3275C25.995 20.895 27.6225 19.5675 30.045 19.5675C35.085 19.5675 36.0225 22.89 36.0225 27.21V36H31.0425Z" fill="#1A1A1A"/>
</svg>
