<svg width="71" height="19" viewBox="0 0 71 19" fill="none" xmlns="http://www.w3.org/2000/svg">
<path d="M0.887985 15.936C-1.46627e-05 13.848 0.119985 4.08003 4.22399 2.88003C7.15199 2.16003 7.91999 7.75203 9.43199 7.87203C11.52 7.51203 9.26399 0.672033 12.864 0.360033C17.064 3.33786e-05 14.904 8.85603 13.512 11.664C12.288 14.136 8.59199 15.672 6.79199 10.296C6.59999 9.72003 6.31199 8.49603 5.83199 8.28003C4.39199 7.87203 4.94399 12.936 4.77599 13.944C4.79999 17.16 2.03999 18.624 0.887985 15.936ZM19.0879 15.408C13.1119 14.904 14.3119 4.00803 19.9759 4.00803C21.6319 4.00803 23.1199 5.13603 22.9519 7.24803C22.7599 9.76803 20.2159 9.74403 19.8799 8.30403C19.7599 7.75203 20.2399 6.86403 20.0959 6.57603C19.6639 5.76003 17.2399 10.2 18.7759 12.024C18.5839 11.064 19.7359 10.224 20.8399 10.176C25.2079 10.08 23.9599 15.816 19.0879 15.408ZM28.434 4.00803C30.786 4.00803 31.722 14.088 29.874 14.088C29.49 14.088 29.274 13.608 29.154 13.32C29.01 12.888 28.89 12.384 28.818 11.832C28.314 11.904 27.786 11.904 27.522 11.904C27.45 11.88 27.378 11.88 27.306 11.88C26.658 13.608 25.77 15.168 24.762 15.264C21.57 15.264 25.866 4.00803 28.434 4.00803ZM27.882 10.176C28.122 10.2 28.386 10.248 28.626 10.296C28.578 9.81603 28.554 9.33603 28.506 8.95203C28.482 8.61603 28.386 8.16003 28.41 7.82403C28.338 8.32803 28.146 9.21603 27.882 10.176ZM33.8002 15.264C32.0002 16.152 31.5442 13.368 31.6402 10.44C31.5682 10.344 31.4962 10.248 31.4242 10.128C31.1602 9.67203 31.2562 8.95203 31.7602 8.78403C31.8322 8.18403 31.9282 7.60803 32.0242 7.08003C31.6402 6.93603 31.3042 6.72003 31.1842 6.33603C30.8722 5.23203 32.0722 4.72803 32.9362 4.48803C33.5122 3.91203 34.1362 3.86403 34.5922 4.20003C36.3922 4.00803 39.0322 4.05603 38.8402 5.95203C38.7202 7.20003 36.7762 7.63203 34.9762 7.60803L34.8322 8.59203C34.9282 8.61603 35.0242 8.64003 35.1202 8.68803C35.7442 9.00003 35.8642 9.84003 35.3122 10.296C35.0962 10.44 34.8322 10.584 34.5922 10.68C34.5202 11.424 34.4722 12.168 34.4962 12.936C34.5202 13.704 34.4962 14.832 33.8002 15.264ZM41.4877 15.264C39.6877 16.152 39.2317 13.368 39.3277 10.44C39.2557 10.344 39.1837 10.248 39.1117 10.128C38.8477 9.67203 38.9437 8.95203 39.4477 8.78403C39.5197 8.18403 39.6157 7.60803 39.7117 7.08003C39.3277 6.93603 38.9917 6.72003 38.8717 6.33603C38.5597 5.23203 39.7597 4.72803 40.6237 4.48803C41.1997 3.91203 41.8237 3.86403 42.2797 4.20003C44.0797 4.00803 46.7197 4.05603 46.5277 5.95203C46.4077 7.20003 44.4637 7.63203 42.6637 7.60803L42.5197 8.59203C42.6157 8.61603 42.7117 8.64003 42.8077 8.68803C43.4317 9.00003 43.5517 9.84003 42.9997 10.296C42.7837 10.44 42.5197 10.584 42.2797 10.68C42.2077 11.424 42.1597 12.168 42.1837 12.936C42.2077 13.704 42.1837 14.832 41.4877 15.264ZM52.4539 13.92C50.7259 15.48 46.1659 16.08 45.8059 13.2C45.8059 12.864 45.7339 11.304 48.1819 9.67203C46.8139 9.96003 46.0699 9.12003 46.4779 7.75203C47.2219 5.73603 52.3339 3.07203 52.9339 4.72803C53.3659 5.90403 50.1499 7.77603 49.1899 8.13603C49.7419 8.01603 51.9499 6.98403 52.3579 7.94403C52.7659 8.88003 50.5819 10.848 49.4059 11.832C50.1739 11.256 51.3739 10.344 52.1179 10.152C53.9899 9.67203 54.8059 11.832 52.4539 13.92ZM54.6827 13.824C53.6747 11.712 53.8907 4.75203 56.1467 4.80003C58.4027 4.84803 57.6827 12.504 57.3707 13.512C56.9387 14.832 55.3787 15.048 54.6827 13.824ZM58.4494 14.808C57.7774 13.296 57.8734 6.14403 60.9454 5.28003C63.1534 4.72803 63.7294 8.83203 64.8814 8.92803C66.4414 8.64003 64.7374 3.64803 67.4254 3.43203C70.5934 3.16803 68.9614 9.64803 67.9294 11.688C66.9934 13.512 64.2334 14.64 62.8894 10.68C62.7454 10.272 62.5294 9.38403 62.1454 9.21603C61.0894 8.92803 61.4974 12.624 61.3534 13.344C61.3774 15.72 59.3134 16.776 58.4494 14.808Z" fill="#287A38"/>
</svg>
