<svg width="28" height="28" viewBox="0 0 28 28" fill="none" xmlns="http://www.w3.org/2000/svg">
<path d="M19.6396 4.375C22.0326 4.37526 23.9727 6.31599 23.9727 8.70898V19.6396C23.9746 22.0347 22.0345 23.9745 19.6416 23.9746H8.70898C6.31592 23.9746 4.37514 22.0346 4.375 19.6416V8.70898C4.375 6.31584 6.31584 4.375 8.70898 4.375H19.6396ZM20.208 8.04883C20.208 9.61063 19.0875 10.6385 18.0098 11.3789C16.9319 12.1193 15.5606 12.4897 13.6113 13.0645C11.662 13.6392 8.21819 14.9557 8.05273 20.2988C8.67522 17.4218 10.2105 17.0091 13.0312 16.3516C15.852 15.6957 17.3849 14.9553 19.0869 12.9404C20.7872 10.9255 20.208 8.04883 20.208 8.04883Z" fill="#1A1A1A"/>
</svg>
