<svg width="24" height="20" viewBox="0 0 24 20" fill="none" xmlns="http://www.w3.org/2000/svg">
<g clip-path="url(#clip0_379_353)">
<path d="M23.8958 2.83488C17.8583 2.83488 11.8187 2.83488 5.78128 2.83488C5.64668 2.83488 5.51208 2.8392 5.37748 2.84353C4.96065 2.85652 4.57205 2.97121 4.2095 3.17463C3.20434 3.73944 2.70068 4.83877 2.88738 5.93377C2.97856 6.47045 3.22388 6.93356 3.59946 7.32741C4.43962 8.21466 5.27978 9.10192 6.12212 9.99134C6.78426 10.6903 7.45509 11.385 8.10855 12.0926C8.9118 12.9626 9.21357 13.9948 9.01384 15.159C8.88141 15.9338 8.51235 16.596 7.92836 17.124C7.05346 17.916 6.02442 18.2147 4.86079 18.0156C4.08575 17.8836 3.42578 17.5157 2.89389 16.9379C2.14057 16.1199 1.83446 15.1504 1.96472 14.0489C2.02985 13.4992 2.22958 12.995 2.54003 12.5362C2.56608 12.4973 2.56608 12.4756 2.53134 12.4389C2.18833 12.0796 1.84966 11.7182 1.50882 11.359C1.41981 11.2638 1.3308 11.1707 1.23962 11.0777C1.22877 11.0863 1.22225 11.0885 1.22008 11.095C1.19837 11.121 1.17666 11.1491 1.15495 11.1772C0.455902 12.0861 0.0716418 13.1097 0.0151967 14.2545C0.0151967 14.2805 0.00434193 14.3043 0 14.3281V14.7068C0.00434193 14.7327 0.0151967 14.7609 0.0151967 14.7868C0.0738128 15.9511 0.466757 16.992 1.18969 17.9074C1.87571 18.7752 2.75061 19.3789 3.80353 19.7252C4.20081 19.855 4.60895 19.9394 5.02795 19.9697C5.12347 19.9762 5.21682 19.9892 5.31018 19.9978H5.69009C5.71397 19.9935 5.73569 19.9848 5.75957 19.9827C5.83121 19.9762 5.90285 19.974 5.97449 19.9675C6.39783 19.9372 6.81031 19.855 7.20977 19.7187C8.68385 19.2166 9.76716 18.2666 10.4575 16.873C10.7636 16.2562 10.9308 15.5983 10.9807 14.9123C10.9981 14.6873 10.9894 14.4622 10.9851 14.2372C10.9786 13.9234 10.9308 13.6161 10.8613 13.311C10.6334 12.3133 10.1558 11.4499 9.4502 10.7076C8.84667 10.0736 8.24749 9.43734 7.64613 8.80328C6.76038 7.86842 5.87463 6.93356 4.98887 5.99869C4.80434 5.80393 4.72836 5.57454 4.79349 5.31053C4.87598 4.97727 5.16255 4.75221 5.50773 4.75221C6.2133 4.75221 6.92103 4.75221 7.62659 4.75221C13.0518 4.75221 18.4771 4.75221 23.9045 4.75221C23.9682 4.75221 24 4.72047 24 4.65699C24 4.08352 24 3.51005 24 2.93659C24 2.82406 24.0109 2.83488 23.9001 2.83488H23.8958Z" fill="#337AE0"/>
<path d="M23.9957 0.0843973C23.9957 0.0562649 23.9978 0.0281324 24 0H5.31018C5.28412 0.00432807 5.2559 0.0151482 5.22985 0.0151482C4.05753 0.0735772 3.00896 0.469595 2.09064 1.19455C1.24613 1.86107 0.651289 2.70721 0.299593 3.72214C0.182361 4.05756 0.0998643 4.40381 0.058616 4.75871C0.0412483 4.91885 0.0303935 5.07682 0.0151967 5.23696C0.0151967 5.25644 0.00651289 5.27375 0 5.29106V5.66977C0.00434193 5.69141 0.0130258 5.71521 0.0151967 5.73685C0.0434193 5.98572 0.0542741 6.23891 0.0998643 6.48561C0.27137 7.40965 0.655631 8.2428 1.26784 8.96126C1.60868 9.36161 1.97992 9.73599 2.3403 10.119C2.78535 10.5908 3.23256 11.0582 3.67978 11.53C4.45916 12.3523 5.23636 13.1768 6.01574 14.0013C6.19159 14.1874 6.26106 14.4038 6.21764 14.6592C6.15468 15.0271 5.76608 15.2976 5.39484 15.237C5.19077 15.2045 5.03881 15.0941 4.90421 14.9513C4.37666 14.393 3.84912 13.8368 3.3194 13.2785C3.28684 13.2439 3.25427 13.2114 3.21954 13.1746C3.20651 13.1919 3.2 13.2006 3.19566 13.2093C2.94817 13.6507 2.83094 14.1225 2.85265 14.631C2.87001 15.0509 2.98073 15.4425 3.18697 15.8083C3.75577 16.8124 4.86296 17.3123 5.95495 17.124C6.58453 17.0158 7.11425 16.715 7.52456 16.2259C8.05427 15.5962 8.24749 14.8669 8.11289 14.0576C8.02388 13.5274 7.77856 13.0708 7.4095 12.6812C6.50204 11.7247 5.59891 10.7661 4.69145 9.8074C4.09227 9.17334 3.48874 8.54361 2.89172 7.90738C2.30773 7.28197 1.99294 6.53755 1.9365 5.68708C1.91913 5.41874 1.9365 5.1504 1.98426 4.88422C2.11235 4.14629 2.43799 3.51006 2.96771 2.98204C3.67978 2.2744 4.54383 1.92383 5.55332 1.92599C11.6733 1.92599 17.7954 1.92599 23.9153 1.92815C23.9805 1.92815 24 1.91301 24 1.84592C23.9978 1.25947 24 0.673015 24 0.0865614L23.9957 0.0843973Z" fill="#337AE0"/>
<path d="M23.911 8.78168C23.9674 8.78168 23.9957 8.75355 23.9957 8.69728C23.9957 8.10867 23.9957 7.52005 23.9957 6.93143C23.9957 6.8694 23.9631 6.83838 23.898 6.83838C21.7835 6.83838 19.6689 6.83838 17.5544 6.83838C17.1984 6.83838 16.8445 6.87084 16.5015 6.9574C14.8863 7.36424 13.7704 8.34238 13.1604 9.88534C12.9563 10.4025 12.8695 10.9457 12.8695 11.5019C12.8695 14.2978 12.8695 17.0937 12.8695 19.8918C12.8695 19.9286 12.8695 19.9654 12.8695 20.0022H14.819C14.819 19.9697 14.8147 19.9373 14.8147 19.9048C14.8147 17.1046 14.8147 14.3043 14.8147 11.5019C14.8147 11.3742 14.8233 11.2465 14.8429 11.1188C14.9276 10.5519 15.162 10.052 15.5615 9.63647C16.0977 9.08032 16.7533 8.78385 17.5327 8.78168C19.6581 8.78168 21.7835 8.78168 23.9088 8.78168H23.911Z" fill="#337AE0"/>
<path d="M23.9002 9.68832C21.8204 9.68832 19.7406 9.68832 17.6608 9.68832C17.5566 9.68832 17.4502 9.68832 17.3482 9.70563C16.812 9.79219 16.3778 10.0519 16.0586 10.4933C15.8025 10.8461 15.6982 11.2464 15.6982 11.6814C15.6982 14.4189 15.6982 17.1564 15.6982 19.8939C15.6982 19.9285 15.6961 19.9632 15.6939 19.9978H17.6174C17.6174 19.9783 17.6174 19.9588 17.6174 19.9394C17.6174 17.4983 17.6174 15.0595 17.6174 12.6184C17.6174 12.5275 17.6261 12.4366 17.6478 12.3479C17.7563 11.9 18.1449 11.5992 18.6095 11.5992C20.3723 11.5992 22.1373 11.5992 23.9002 11.5992C23.9638 11.5992 23.9957 11.5667 23.9957 11.5018C23.9957 10.9283 23.9957 10.3548 23.9957 9.78138C23.9957 9.7179 23.9638 9.68616 23.9002 9.68616V9.68832Z" fill="#337AE0"/>
</g>
<defs>
<clipPath id="clip0_379_353">
<rect width="24" height="20" fill="white"/>
</clipPath>
</defs>
</svg>
