<svg width="67" height="10" viewBox="0 0 67 10" fill="none" xmlns="http://www.w3.org/2000/svg">
<path d="M28.2115 8.21843C27.9832 8.20658 27.8063 8.19077 27.6294 8.18979C25.9693 8.18682 24.3082 8.18682 22.6481 8.18682C21.4484 8.18682 20.2478 8.19571 19.0481 8.18287C18.221 8.17398 17.7685 7.68101 17.8317 6.81067C21.0848 6.81067 24.3438 6.81067 27.5988 6.81067C27.5988 6.16853 27.5988 5.60543 27.5988 4.99194C27.3715 4.99194 27.1778 4.99194 26.9842 4.99194C25.1926 4.99194 23.4001 4.99293 21.6085 4.99293C20.4741 4.99293 19.3397 4.98206 18.2052 4.99688C17.7991 5.00182 17.719 4.84375 17.8297 4.48909C18.0096 3.91611 18.4118 3.62665 19.0975 3.62567C21.6787 3.6227 24.2598 3.62468 26.8409 3.62369C28.25 3.62369 28.2372 3.6227 28.2184 2.23568C28.2134 1.87806 28.0741 1.78816 27.75 1.79212C26.8626 1.80397 25.9742 1.79706 25.0869 1.79508C23.0819 1.78915 21.0759 1.78718 19.0709 1.77137C17.307 1.75853 15.9324 3.12579 15.97 4.83387C15.9868 5.61629 15.9591 6.40069 15.9848 7.18311C16.0372 8.77067 17.3188 9.9858 18.9246 9.98777C20.9306 9.99073 22.9356 9.98777 24.9416 9.98777C25.8952 9.98777 26.8488 9.99864 27.8024 9.97592C27.9407 9.97295 28.1828 9.8139 28.1917 9.71116C28.2342 9.23202 28.2115 8.744 28.2115 8.21843ZM43.0548 6.81956C43.2801 6.81956 43.4728 6.81956 43.6665 6.81956C46.3454 6.82055 49.0253 6.82253 51.7043 6.82351C52.8861 6.82351 52.8861 6.82351 52.8842 5.64099C52.8832 4.99391 52.8832 4.99391 52.2458 4.99391C49.3366 4.99391 46.4265 4.9949 43.5173 4.99391C43.0123 4.99391 42.9046 4.82992 43.0963 4.36561C43.3345 3.78768 43.8019 3.62073 44.3908 3.6227C46.9719 3.63061 49.552 3.62567 52.1332 3.62567C53.4227 3.62567 53.4059 3.62468 53.4227 2.35423C53.4277 1.93339 53.317 1.78619 52.8733 1.78915C49.9641 1.80595 47.0539 1.79113 44.1448 1.79903C42.5499 1.80397 41.2603 3.04774 41.2148 4.6274C41.1901 5.49182 41.1882 6.35722 41.2198 7.22164C41.2771 8.79932 42.5459 9.99073 44.1359 9.99073C47.0451 9.99271 49.9552 9.99073 52.8644 9.99073C53.0373 9.99073 53.2103 9.99073 53.3822 9.99073C53.3822 9.36341 53.3822 8.81612 53.3822 8.21448C53.1579 8.21448 52.9652 8.21448 52.7725 8.21448C50.2082 8.21448 47.6439 8.21448 45.0796 8.21349C44.7673 8.21349 44.4531 8.22634 44.1438 8.1967C43.4106 8.12656 43.0133 7.64841 43.0548 6.81956ZM66.3895 8.21448C66.1771 8.21448 65.9992 8.21448 65.8213 8.21448C63.9962 8.21448 62.172 8.21448 60.3468 8.21448C59.328 8.21448 58.3082 8.22634 57.2894 8.20954C56.4317 8.19571 55.9742 7.67607 56.0819 6.84327C56.2351 6.83636 56.3951 6.82351 56.5562 6.82253C59.2193 6.82154 61.8825 6.82351 64.5456 6.82351C65.8529 6.82351 65.8381 6.82253 65.8569 5.51355C65.8628 5.11444 65.761 4.98305 65.3401 4.98601C62.4309 5.00281 59.5207 4.99391 56.6115 4.99391C56.4357 4.99391 56.2598 4.99391 56.0938 4.99391C55.9554 4.14827 56.4258 3.63159 57.3013 3.62863C59.915 3.6227 62.5287 3.62567 65.1424 3.62567C66.4221 3.62567 66.4053 3.62567 66.4261 2.34435C66.433 1.91956 66.3194 1.78421 65.8776 1.78718C62.9843 1.80595 60.0909 1.79409 57.1985 1.79804C55.7024 1.80002 54.4504 2.76817 54.2706 4.22928C54.1401 5.28831 54.1372 6.3839 54.2419 7.44688C54.3951 8.99888 55.6303 9.98975 57.2074 9.98975C60.084 9.98975 62.9606 9.98975 65.8381 9.98975C66.014 9.98975 66.1889 9.98975 66.3905 9.98975C66.3895 9.38811 66.3895 8.83983 66.3895 8.21448ZM28.9101 1.76445C28.9338 1.9077 28.9279 1.97784 28.9565 2.02921C30.2758 4.35968 31.5663 6.70793 32.9339 9.01073C33.5881 10.1122 35.3619 10.3207 36.2552 9.37922C36.8422 8.75981 37.2117 7.93688 37.6643 7.22559C37.5388 7.11297 37.5171 7.0774 37.4914 7.07345C37.3955 7.05666 37.2977 7.04777 37.2009 7.04085C36.3817 6.98059 35.6158 6.95095 35.2344 7.93589C35.0684 8.36366 34.6148 8.33698 34.3184 7.96652C34.2077 7.82722 34.1267 7.66323 34.0377 7.50714C33.015 5.70224 31.9972 3.89536 30.9655 2.0954C30.8874 1.95907 30.7254 1.78915 30.592 1.78026C30.0544 1.74371 29.5119 1.76445 28.9101 1.76445ZM13.1586 9.98876C13.6715 9.98876 14.132 9.96406 14.5885 9.99666C14.9848 10.0243 15.0994 9.88206 15.0945 9.49876C15.0767 8.01295 15.0866 6.52813 15.0866 5.04232C15.0866 3.61381 15.0866 3.6227 13.6339 3.65036C13.2673 3.65728 13.1122 3.75311 13.1161 4.15617C13.1369 5.95218 13.124 7.7472 13.126 9.54321C13.127 9.66967 13.1438 9.79612 13.1586 9.98876ZM35.9548 6.77214C35.9825 6.80968 36.0101 6.84722 36.0368 6.88378C36.1742 6.85809 36.3174 6.84623 36.4489 6.80376C36.9153 6.65162 37.3906 6.51529 37.8382 6.31869C38.0685 6.21694 38.3136 6.03714 38.4381 5.82672C39.1565 4.60666 39.8423 3.36684 40.535 2.13196C40.5844 2.04403 40.6012 1.93734 40.6565 1.76445C40.0854 1.76445 39.5794 1.74074 39.0774 1.7773C38.9074 1.79014 38.6831 1.91758 38.5972 2.05984C38.113 2.86992 37.6633 3.69976 37.2038 4.52367C36.7878 5.27152 36.3718 6.02232 35.9548 6.77214ZM14.1043 2.90746C14.1043 2.90647 14.1043 2.90647 14.1043 2.90548C14.3326 2.90548 14.5658 2.93216 14.7881 2.89462C14.8978 2.87585 15.05 2.75335 15.0747 2.65159C15.2437 1.93931 15.0866 1.74964 14.3672 1.74964C14.0569 1.74964 13.7446 1.73087 13.4373 1.7605C13.3286 1.77137 13.1636 1.883 13.1399 1.97685C12.9541 2.70296 13.1201 2.90548 13.8592 2.90647C13.9413 2.90746 14.0233 2.90746 14.1043 2.90746Z" fill="#F6F4F4"/>
<path d="M2.0722 0C2.12754 0.212399 2.23031 0.423811 2.23129 0.637198C2.24414 2.49545 2.23722 4.35468 2.2392 6.21293C2.24019 7.3016 2.70562 7.76888 3.78964 7.76888C6.28675 7.76987 8.78288 7.76888 11.28 7.76888C11.9411 7.76888 11.9411 7.76987 11.9421 8.44757C11.9421 8.93461 11.9421 9.42164 11.9421 9.96203C11.7316 9.97191 11.5587 9.98672 11.3847 9.98672C8.8392 9.9887 6.29268 9.9887 3.74715 9.98771C2.00895 9.98771 0.785597 9.14108 0.174907 7.52487C0.136368 7.42608 0.0592904 7.34112 0 7.24825C0 4.83283 0 2.41641 0 0C0.69765 0 1.38542 0 2.0722 0Z" fill="#898989"/>
<path d="M28.2114 8.21849C28.2114 8.74307 28.2341 9.23109 28.1926 9.71319C28.1837 9.81593 27.9416 9.974 27.8033 9.97795C26.8507 10.0017 25.8961 9.98981 24.9425 9.98981C22.9365 9.98981 20.9315 9.99178 18.9255 9.98981C17.3197 9.98783 16.0381 8.77172 15.9857 7.18514C15.96 6.40272 15.9877 5.61833 15.9709 4.83591C15.9333 3.12782 17.3089 1.76056 19.0718 1.77341C21.0768 1.78822 23.0828 1.79119 25.0878 1.79711C25.9751 1.80008 26.8635 1.80601 27.7509 1.79415C28.075 1.7902 28.2143 1.87911 28.2193 2.23772C28.2381 3.62474 28.2499 3.62474 26.8418 3.62573C24.2607 3.62573 21.6795 3.62474 19.0984 3.6277C18.4126 3.62869 18.0105 3.91815 17.8306 4.49113C17.719 4.84579 17.8 5.00385 18.2061 4.99891C19.3405 4.98409 20.475 4.99496 21.6094 4.99496C23.4009 4.99496 25.1935 4.99397 26.985 4.99397C27.1787 4.99397 27.3714 4.99397 27.5997 4.99397C27.5997 5.60746 27.5997 6.17057 27.5997 6.8127C24.3446 6.8127 21.0847 6.8127 17.8326 6.8127C17.7693 7.68206 18.2209 8.17601 19.049 8.1849C20.2487 8.19775 21.4493 8.18787 22.6489 8.18886C24.3091 8.18886 25.9702 8.18984 27.6303 8.19182C27.8062 8.19083 27.9831 8.20763 28.2114 8.21849Z" fill="#F30C0A"/>
<path d="M43.0546 6.81964C43.0131 7.6475 43.4103 8.12663 44.1436 8.19678C44.4529 8.22641 44.7671 8.21357 45.0794 8.21357C47.6437 8.21456 50.208 8.21456 52.7723 8.21456C52.965 8.21456 53.1577 8.21456 53.382 8.21456C53.382 8.81619 53.382 9.36349 53.382 9.99081C53.2091 9.99081 53.0371 9.99081 52.8642 9.99081C49.955 9.99081 47.0448 9.99279 44.1357 9.99081C42.5447 9.98982 41.2769 8.7994 41.2196 7.22171C41.1879 6.35828 41.1899 5.49189 41.2146 4.62748C41.2601 3.04782 42.5496 1.80405 44.1446 1.79911C47.0537 1.79022 49.9639 1.80602 52.8731 1.78923C53.3168 1.78626 53.4274 1.93445 53.4225 2.35431C53.4057 3.62377 53.4225 3.62475 52.1329 3.62574C49.5518 3.62673 46.9717 3.63068 44.3906 3.62278C43.8017 3.6208 43.3342 3.78875 43.0961 4.36568C42.9044 4.83 43.0131 4.993 43.5171 4.99399C46.4262 4.99498 49.3364 4.99399 52.2456 4.99399C52.883 4.99399 52.883 4.99399 52.8839 5.64107C52.8859 6.82359 52.8859 6.82458 51.7041 6.82359C49.0251 6.8226 46.3452 6.82161 43.6663 6.81964C43.4726 6.81964 43.2799 6.81964 43.0546 6.81964Z" fill="#F30C0A"/>
<path d="M66.3894 8.21433C66.3894 8.83967 66.3894 9.38796 66.3894 9.99058C66.1888 9.99058 66.0129 9.99058 65.837 9.99058C62.9604 9.99058 60.0838 9.99058 57.2063 9.99058C55.6282 9.99058 54.3939 8.99971 54.2408 7.44771C54.136 6.38473 54.139 5.28914 54.2694 4.23011C54.4493 2.769 55.7013 1.80085 57.1974 1.79888C60.0908 1.79493 62.9841 1.80678 65.8765 1.78801C66.3192 1.78505 66.4319 1.92039 66.4249 2.34519C66.4042 3.62551 66.421 3.6265 65.1413 3.6265C62.5276 3.6265 59.9139 3.62255 57.3001 3.62947C56.4246 3.63144 55.9543 4.1491 56.0926 4.99475C56.2586 4.99475 56.4345 4.99475 56.6104 4.99475C59.5196 4.99574 62.4298 5.00364 65.3389 4.98685C65.7599 4.98388 65.8617 5.11527 65.8557 5.51439C65.837 6.82336 65.8528 6.82435 64.5444 6.82435C61.8813 6.82435 59.2182 6.82336 56.5551 6.82336C56.395 6.82336 56.2339 6.83719 56.0807 6.84411C55.972 7.67691 56.4306 8.19655 57.2883 8.21038C58.3071 8.22717 59.3269 8.21532 60.3457 8.21532C62.1709 8.21532 63.995 8.21532 65.8202 8.21532C65.999 8.21433 66.1769 8.21433 66.3894 8.21433Z" fill="#F30C0A"/>
<path d="M28.91 1.76444C29.5118 1.76444 30.0533 1.74369 30.5919 1.77926C30.7253 1.78815 30.8874 1.95807 30.9654 2.0944C31.9971 3.89436 33.0149 5.70124 34.0377 7.50614C34.1256 7.66223 34.2066 7.82622 34.3183 7.96551C34.6138 8.33598 35.0683 8.36364 35.2343 7.93489C35.6158 6.94995 36.3826 6.97959 37.2008 7.03985C37.2976 7.04676 37.3955 7.05565 37.4913 7.07245C37.518 7.07739 37.5388 7.11196 37.6643 7.22459C37.2107 7.93489 36.8421 8.7588 36.2551 9.37822C35.3618 10.3197 33.588 10.1112 32.9339 9.00973C31.5662 6.70692 30.2757 4.35966 28.9565 2.02821C28.9278 1.97783 28.9338 1.90768 28.91 1.76444Z" fill="#898989"/>
<path d="M13.1585 9.98869C13.1447 9.79604 13.1269 9.66959 13.1269 9.54215C13.1249 7.74614 13.1368 5.95013 13.117 4.15511C13.1121 3.75205 13.2672 3.65622 13.6348 3.6493C15.0884 3.62164 15.0874 3.61275 15.0874 5.04126C15.0874 6.52707 15.0766 8.01288 15.0953 9.4977C15.1003 9.88199 14.9857 10.0243 14.5894 9.9956C14.1319 9.96399 13.6714 9.98869 13.1585 9.98869Z" fill="#898989"/>
<path d="M35.9547 6.77226C36.3717 6.02244 36.7877 5.27164 37.2057 4.52281C37.6652 3.69889 38.1158 2.86905 38.5991 2.05897C38.684 1.91671 38.9093 1.78927 39.0793 1.77643C39.5813 1.73889 40.0873 1.76359 40.6584 1.76359C40.6021 1.93647 40.5863 2.04317 40.5369 2.13109C39.8442 3.36597 39.1584 4.60579 38.44 5.82585C38.3155 6.03627 38.0704 6.21607 37.8401 6.31783C37.3925 6.51541 36.9172 6.65075 36.4508 6.80289C36.3184 6.84636 36.1761 6.85722 36.0387 6.88291C36.0101 6.84734 35.9824 6.8098 35.9547 6.77226Z" fill="#F30C0A"/>
<path d="M14.1043 2.90733C14.0223 2.90733 13.9413 2.90733 13.8592 2.90733C13.1201 2.90634 12.9541 2.70382 13.1399 1.97771C13.1636 1.88287 13.3286 1.77124 13.4373 1.76136C13.7446 1.73172 14.0569 1.75049 14.3672 1.75049C15.0866 1.75049 15.2437 1.94017 15.0747 2.65245C15.051 2.75321 14.8978 2.8767 14.7881 2.89547C14.5658 2.93301 14.3326 2.90634 14.1043 2.90634V2.90733Z" fill="#898989"/>
</svg>
