<svg width="24" height="20" viewBox="0 0 24 20" fill="none" xmlns="http://www.w3.org/2000/svg">
<g clip-path="url(#clip0_734_981)">
<path d="M21.9175 4.26793C17.1379 4.26793 12.3565 4.26793 7.57684 4.26793C7.47028 4.26793 7.36373 4.27139 7.25717 4.27485C6.92718 4.28524 6.61954 4.37699 6.33252 4.53973C5.53677 4.99158 5.13804 5.87104 5.28584 6.74704C5.35803 7.17639 5.55224 7.54687 5.84957 7.86195C6.5147 8.57176 7.17983 9.28156 7.84668 9.99309C8.37087 10.5523 8.90194 11.108 9.41927 11.6741C10.0552 12.3701 10.2941 13.1959 10.136 14.1273C10.0311 14.747 9.73894 15.2768 9.27662 15.6992C8.58399 16.3328 7.76933 16.5718 6.84812 16.4125C6.23455 16.3069 5.71208 16.0126 5.291 15.5503C4.69462 14.8959 4.45228 14.1203 4.5554 13.2391C4.60697 12.7994 4.76508 12.396 5.01085 12.029C5.03148 11.9979 5.03148 11.9805 5.00398 11.9511C4.73243 11.6637 4.46431 11.3746 4.19448 11.0872C4.12402 11.0111 4.05355 10.9366 3.98137 10.8622C3.97277 10.8691 3.96762 10.8708 3.9659 10.876C3.94871 10.8968 3.93152 10.9193 3.91434 10.9418C3.36092 11.6689 3.05672 12.4878 3.01203 13.4036C3.01203 13.4244 3.00344 13.4434 3 13.4625V13.7654C3.00344 13.7862 3.01203 13.8087 3.01203 13.8295C3.05844 14.7609 3.36952 15.5936 3.94184 16.3259C4.48494 17.0201 5.17757 17.5032 6.01113 17.7802C6.32564 17.884 6.64876 17.9515 6.98046 17.9758C7.05608 17.981 7.12999 17.9914 7.20389 17.9983H7.50466C7.52356 17.9948 7.54075 17.9879 7.55966 17.9862C7.61637 17.981 7.67309 17.9792 7.72981 17.974C8.06495 17.9498 8.3915 17.884 8.70773 17.775C9.87472 17.3733 10.7323 16.6133 11.2789 15.4984C11.5212 15.005 11.6536 14.4787 11.6931 13.9299C11.7068 13.7499 11.7 13.5698 11.6965 13.3898C11.6914 13.1387 11.6535 12.8929 11.5986 12.6488C11.4181 11.8507 11.04 11.1599 10.4814 10.5661C10.0036 10.0589 9.52926 9.5499 9.05319 9.04265C8.35197 8.29476 7.65075 7.54687 6.94952 6.79898C6.80344 6.64317 6.74328 6.45966 6.79484 6.24845C6.86015 5.98184 7.08702 5.80179 7.36029 5.80179C7.91886 5.80179 8.47915 5.80179 9.03772 5.80179C13.3327 5.80179 17.6277 5.80179 21.9244 5.80179C21.9748 5.80179 22 5.7764 22 5.72562C22 5.26684 22 4.80807 22 4.34929C22 4.25927 22.0086 4.26793 21.9209 4.26793H21.9175Z" fill="#337AE0"/>
<path d="M21.9966 2.06752C21.9966 2.04501 21.9983 2.02251 22 2H7.20389C7.18327 2.00346 7.16092 2.01212 7.1403 2.01212C6.21221 2.05886 5.38209 2.37568 4.65509 2.95564C3.98652 3.48886 3.5156 4.16577 3.23718 4.97771C3.14437 5.24605 3.07906 5.52305 3.0464 5.80697C3.03265 5.93508 3.02406 6.06146 3.01203 6.18957C3.01203 6.20515 3.00516 6.219 3 6.23285V6.53581C3.00344 6.55313 3.01031 6.57217 3.01203 6.58948C3.03437 6.78857 3.04297 6.99113 3.07906 7.18849C3.21483 7.92772 3.51904 8.59424 4.00371 9.16901C4.27354 9.48929 4.56744 9.78879 4.85274 10.0952C5.20507 10.4726 5.55911 10.8466 5.91316 11.224C6.53017 11.8818 7.14545 12.5414 7.76246 13.201C7.90167 13.3499 7.95667 13.523 7.9223 13.7273C7.87246 14.0216 7.56481 14.238 7.27092 14.1896C7.10936 14.1636 6.98905 14.0753 6.8825 13.961C6.46486 13.5144 6.04722 13.0695 5.62786 12.6228C5.60208 12.5951 5.5763 12.5691 5.5488 12.5397C5.53849 12.5536 5.53333 12.5605 5.5299 12.5674C5.33397 12.9206 5.24116 13.298 5.25834 13.7048C5.27209 14.0407 5.35975 14.354 5.52302 14.6466C5.97332 15.4499 6.84984 15.8498 7.71434 15.6992C8.21275 15.6126 8.63211 15.372 8.95694 14.9807C9.3763 14.477 9.52926 13.8935 9.4227 13.2461C9.35224 12.8219 9.15803 12.4566 8.86585 12.145C8.14744 11.3798 7.43247 10.6129 6.71407 9.84592C6.23971 9.33867 5.76192 8.83488 5.28928 8.3259C4.82696 7.82558 4.57775 7.23004 4.53306 6.54966C4.51931 6.33499 4.53306 6.12032 4.57087 5.90738C4.67227 5.31703 4.93008 4.80805 5.34943 4.38563C5.91316 3.81952 6.5972 3.53906 7.39638 3.54079C12.2413 3.54079 17.088 3.54079 21.933 3.54252C21.9845 3.54252 22 3.5304 22 3.47674C21.9983 3.00757 22 2.53841 22 2.06925L21.9966 2.06752Z" fill="#337AE0"/>
<path d="M21.9295 9.02535C21.9742 9.02535 21.9966 9.00284 21.9966 8.95783C21.9966 8.48693 21.9966 8.01604 21.9966 7.54515C21.9966 7.49552 21.9708 7.4707 21.9192 7.4707C20.2452 7.4707 18.5712 7.4707 16.8972 7.4707C16.6154 7.4707 16.3352 7.49667 16.0637 7.56592C14.785 7.89139 13.9016 8.67391 13.4186 9.90827C13.2571 10.322 13.1883 10.7566 13.1883 11.2015C13.1883 13.4382 13.1883 15.675 13.1883 17.9135C13.1883 17.9429 13.1883 17.9723 13.1883 18.0018H14.7317C14.7317 17.9758 14.7283 17.9498 14.7283 17.9239C14.7283 15.6836 14.7283 13.4434 14.7283 11.2015C14.7283 11.0994 14.7351 10.9972 14.7506 10.8951C14.8176 10.4415 15.0032 10.0416 15.3195 9.70918C15.744 9.26425 16.263 9.02708 16.88 9.02535C18.5626 9.02535 20.2452 9.02535 21.9278 9.02535H21.9295Z" fill="#337AE0"/>
<path d="M21.921 9.75076C20.2745 9.75076 18.628 9.75076 16.9815 9.75076C16.899 9.75076 16.8148 9.75075 16.734 9.7646C16.3095 9.83385 15.9657 10.0416 15.7131 10.3948C15.5103 10.677 15.4278 10.9972 15.4278 11.3452C15.4278 13.5352 15.4278 15.7252 15.4278 17.9152C15.4278 17.9429 15.4261 17.9706 15.4243 17.9983H16.9471C16.9471 17.9827 16.9471 17.9672 16.9471 17.9516C16.9471 15.9988 16.9471 14.0477 16.9471 12.0948C16.9471 12.0221 16.954 11.9494 16.9712 11.8784C17.0571 11.5201 17.3647 11.2794 17.7325 11.2794C19.1281 11.2794 20.5254 11.2794 21.921 11.2794C21.9714 11.2794 21.9966 11.2535 21.9966 11.2015C21.9966 10.7427 21.9966 10.284 21.9966 9.8252C21.9966 9.77442 21.9714 9.74902 21.921 9.74902V9.75076Z" fill="#337AE0"/>
</g>
<defs>
<clipPath id="clip0_734_981">
<rect width="19" height="16" fill="white" transform="translate(3 2)"/>
</clipPath>
</defs>
</svg>
